<svg width="14" height="14" viewBox="0 0 14 14" fill="none" xmlns="http://www.w3.org/2000/svg">
<path d="M6.99986 4.95849V6.12516M6.99865 11.9794L8.597 10.6552C8.70164 10.5685 8.83326 10.521 8.96915 10.521L9.91782 10.521C10.8843 10.521 11.6678 9.73751 11.6678 8.77102V4.0835C11.6678 3.117 10.8843 2.33349 9.9178 2.3335L4.08447 2.33351C3.11797 2.33351 2.33447 3.11701 2.33447 4.08351V8.77103C2.33447 9.73753 3.11797 10.521 4.08447 10.521H5.04675C5.18379 10.521 5.31646 10.5693 5.42149 10.6573L6.99865 11.9794Z" stroke="#A8A29D" stroke-width="1.2" stroke-linecap="round" stroke-linejoin="round"/>
<path d="M6.99984 7.87484H7.00567M7.14567 7.87484C7.14567 7.95538 7.08038 8.02067 6.99984 8.02067C6.9193 8.02067 6.854 7.95538 6.854 7.87484C6.854 7.7943 6.9193 7.729 6.99984 7.729C7.08038 7.729 7.14567 7.7943 7.14567 7.87484Z" stroke="#A8A29D" stroke-width="1.2" stroke-linecap="round" stroke-linejoin="round"/>
</svg>
