<svg width="16" height="17" viewBox="0 0 16 17" fill="none" xmlns="http://www.w3.org/2000/svg">
<g id="basket-1">
<path id="Vector" d="M1.3335 2.5H1.8197C2.30854 2.5 2.72573 2.85341 2.8061 3.3356L3.00016 4.5M3.00016 4.5L3.81448 9.38587C3.92163 10.0288 4.47788 10.5 5.12966 10.5H11.9011C12.5394 10.5 13.0881 10.0477 13.21 9.42113L13.9353 5.69087C14.0553 5.07357 13.5825 4.5 12.9536 4.5H3.00016ZM6.00016 13.1667C6.00016 13.5349 5.70168 13.8333 5.3335 13.8333C4.96531 13.8333 4.66683 13.5349 4.66683 13.1667C4.66683 12.7985 4.96531 12.5 5.3335 12.5C5.70168 12.5 6.00016 12.7985 6.00016 13.1667ZM12.0002 13.1667C12.0002 13.5349 11.7017 13.8333 11.3335 13.8333C10.9653 13.8333 10.6668 13.5349 10.6668 13.1667C10.6668 12.7985 10.9653 12.5 11.3335 12.5C11.7017 12.5 12.0002 12.7985 12.0002 13.1667Z" stroke="#1b1917" stroke-width="1.5" stroke-linecap="round" stroke-linejoin="round"/>
</g>
</svg>
