<svg width="14" height="14" viewBox="0 0 14 14" fill="none" xmlns="http://www.w3.org/2000/svg">
<path d="M3.39109 10.6164L3.98977 10.5765L3.98977 10.5765L3.39109 10.6164ZM10.6089 10.6164L11.2076 10.6563L11.2076 10.6563L10.6089 10.6164ZM1.75 2.9C1.41863 2.9 1.15 3.16863 1.15 3.5C1.15 3.83137 1.41863 4.1 1.75 4.1V2.9ZM12.25 4.1C12.5814 4.1 12.85 3.83137 12.85 3.5C12.85 3.16863 12.5814 2.9 12.25 2.9V4.1ZM6.43333 6.41667C6.43333 6.0853 6.1647 5.81667 5.83333 5.81667C5.50196 5.81667 5.23333 6.0853 5.23333 6.41667H6.43333ZM5.23333 9.33333C5.23333 9.6647 5.50196 9.93333 5.83333 9.93333C6.1647 9.93333 6.43333 9.6647 6.43333 9.33333H5.23333ZM8.76667 6.41667C8.76667 6.0853 8.49804 5.81667 8.16667 5.81667C7.8353 5.81667 7.56667 6.0853 7.56667 6.41667H8.76667ZM7.56667 9.33333C7.56667 9.6647 7.8353 9.93333 8.16667 9.93333C8.49804 9.93333 8.76667 9.6647 8.76667 9.33333H7.56667ZM8.67877 3.64955C8.76137 3.97047 9.08848 4.16366 9.40939 4.08106C9.7303 3.99847 9.92349 3.67136 9.8409 3.35044L8.67877 3.64955ZM2.318 3.53991L2.79242 10.6563L3.98977 10.5765L3.51534 3.46009L2.318 3.53991ZM5.13722 12.85H8.86278V11.65H5.13722V12.85ZM11.2076 10.6563L11.682 3.53991L10.4847 3.46009L10.0102 10.5765L11.2076 10.6563ZM11.0833 2.9H2.91667V4.1H11.0833V2.9ZM1.75 4.1H2.91667V2.9H1.75V4.1ZM11.0833 4.1H12.25V2.9H11.0833V4.1ZM8.86278 12.85C10.1 12.85 11.1253 11.8908 11.2076 10.6563L10.0102 10.5765C9.96996 11.1806 9.46822 11.65 8.86278 11.65V12.85ZM2.79242 10.6563C2.87472 11.8908 3.90003 12.85 5.13722 12.85V11.65C4.53178 11.65 4.03004 11.1806 3.98977 10.5765L2.79242 10.6563ZM5.23333 6.41667V9.33333H6.43333V6.41667H5.23333ZM7.56667 6.41667V9.33333H8.76667V6.41667H7.56667ZM7.00001 2.35C7.80685 2.35 8.48632 2.90183 8.67877 3.64955L9.8409 3.35044C9.5153 2.08541 8.36765 1.15 7.00001 1.15V2.35ZM5.32125 3.64956C5.5137 2.90183 6.19317 2.35 7.00001 2.35V1.15C5.63237 1.15 4.48472 2.08541 4.15913 3.35044L5.32125 3.64956Z" fill="#A8A29D"/>
</svg>
