<svg width="14" height="14" viewBox="0 0 14 14" fill="none" xmlns="http://www.w3.org/2000/svg">
<path d="M7.03122 5.01257C6.86731 5.30056 6.96789 5.6669 7.25588 5.83082C7.54388 5.99473 7.91022 5.89415 8.07413 5.60615L7.03122 5.01257ZM9.35303 6.33914C9.19217 6.62885 9.29662 6.99411 9.58633 7.15497C9.87604 7.31582 10.2413 7.21137 10.4022 6.92166L9.35303 6.33914ZM10.4756 9.62563L10.1851 10.1506C10.4748 10.3109 10.8395 10.2063 11.0002 9.91689L10.4756 9.62563ZM4.66299 6.40905L4.13843 6.11779C4.06111 6.25704 4.04233 6.42132 4.08623 6.57443C4.13014 6.72754 4.23312 6.85691 4.37248 6.93403L4.66299 6.40905ZM5.70893 7.29842L6.09691 6.84074L5.18156 6.06477L4.79357 6.52245L5.70893 7.29842ZM1.75 8.07555L1.87485 7.48868C1.68237 7.44774 1.48205 7.50377 1.33876 7.63865C1.19547 7.77353 1.12742 7.97009 1.15666 8.16469L1.75 8.07555ZM10.2237 9.60217L10.2939 9.00629L9.10215 8.86585L9.03193 9.46173L10.2237 9.60217ZM11.5009 3.70674L12.0255 3.998V3.998L11.5009 3.70674ZM10.9864 1.91544L11.2769 1.39046L10.9864 1.91544ZM9.19893 2.41694L8.67748 2.12015L8.67748 2.12015L9.19893 2.41694ZM7.18284 5.47177L6.89219 5.99667L7.18284 5.47177ZM4.80499 6.15332L5.32955 6.44458L4.80499 6.15332ZM9.93489 6.99559L10.2255 6.47068L9.93489 6.99559ZM10.6167 9.37161L11.1412 9.66291L10.6167 9.37161ZM8.07413 5.60615L9.72038 2.71374L8.67748 2.12015L7.03122 5.01257L8.07413 5.60615ZM10.9764 3.41548L9.35303 6.33914L10.4022 6.92166L12.0255 3.998L10.9764 3.41548ZM10.7661 9.10065L4.9535 5.88407L4.37248 6.93403L10.1851 10.1506L10.7661 9.10065ZM4.79357 6.52245C4.36816 7.02427 3.9442 7.31705 3.49827 7.46345C3.0505 7.61047 2.5271 7.62744 1.87485 7.48868L1.62515 8.66242C2.42565 8.83271 3.17291 8.8333 3.8726 8.60358C4.57413 8.37325 5.17441 7.92894 5.70893 7.29842L4.79357 6.52245ZM1.15666 8.16469C1.49292 10.4029 3.54494 12.1535 5.53084 12.6955C6.53934 12.9708 7.62399 12.9624 8.52343 12.4643C9.44788 11.9523 10.0603 10.9883 10.2237 9.60217L9.03193 9.46173C8.90351 10.5515 8.45827 11.1287 7.94207 11.4145C7.40086 11.7143 6.6619 11.7603 5.84681 11.5379C4.18553 11.0845 2.59042 9.63099 2.34334 7.98641L1.15666 8.16469ZM10.2255 6.47068L7.47348 4.94686L6.89219 5.99667L9.64424 7.5205L10.2255 6.47068ZM12.0255 3.998C12.5402 3.07106 12.2043 1.90364 11.2769 1.39046L10.6959 2.44042C11.0437 2.63287 11.1685 3.06943 10.9764 3.41548L12.0255 3.998ZM9.72038 2.71374C9.91506 2.3717 10.3502 2.24909 10.6959 2.44042L11.2769 1.39046C10.3571 0.881431 9.19768 1.20617 8.67748 2.12015L9.72038 2.71374ZM5.18756 6.70031C5.23489 6.61507 5.28222 6.52982 5.32955 6.44458L4.28042 5.86205C4.23309 5.9473 4.18576 6.03254 4.13843 6.11779L5.18756 6.70031ZM10.0922 9.08031C10.0451 9.16498 9.9981 9.24967 9.95107 9.33437L11.0002 9.91689C11.0472 9.83224 11.0942 9.74759 11.1412 9.66291L10.0922 9.08031ZM7.47348 4.94686C6.33892 4.31865 4.90995 4.72828 4.28042 5.86205L5.32955 6.44458C5.63765 5.8897 6.33699 5.68925 6.89219 5.99667L7.47348 4.94686ZM9.64424 7.5205C10.1996 7.82797 10.3998 8.52636 10.0922 9.08031L11.1412 9.66291C11.7715 8.52808 11.3602 7.09894 10.2255 6.47068L9.64424 7.5205Z" fill="#A8A29D"/>
</svg>
