<svg width="16" height="16" viewBox="0 0 16 17" fill="none" xmlns="http://www.w3.org/2000/svg">
<path d="M8.6 5.83333V5.23333H7.4V5.83333H8.6ZM8 8.5H7.4V8.74853L7.57574 8.92426L8 8.5ZM9.2424 10.5909C9.47672 10.8252 9.85662 10.8252 10.0909 10.5909C10.3252 10.3566 10.3252 9.97672 10.0909 9.7424L9.2424 10.5909ZM13.4 8.5C13.4 11.4823 10.9823 13.9 8 13.9V15.1C11.6451 15.1 14.6 12.1451 14.6 8.5H13.4ZM8 13.9C5.01766 13.9 2.6 11.4823 2.6 8.5H1.4C1.4 12.1451 4.35492 15.1 8 15.1V13.9ZM2.6 8.5C2.6 5.51766 5.01766 3.1 8 3.1V1.9C4.35492 1.9 1.4 4.85492 1.4 8.5H2.6ZM8 3.1C10.9823 3.1 13.4 5.51766 13.4 8.5H14.6C14.6 4.85492 11.6451 1.9 8 1.9V3.1ZM7.4 5.83333V8.5H8.6V5.83333H7.4ZM7.57574 8.92426L9.2424 10.5909L10.0909 9.7424L8.42426 8.07574L7.57574 8.92426Z" fill="#78716C"/>
</svg>
