<svg width="16" height="16" viewBox="0 0 16 17" fill="none" xmlns="http://www.w3.org/2000/svg">
<path d="M9.99984 8.50003L9.99984 9.10003L10.2484 9.10003L10.4241 8.92429L9.99984 8.50003ZM7.99984 8.50003H7.39984V9.10003L7.99984 9.10003L7.99984 8.50003ZM7.99984 6.5L7.57557 6.07574L7.39984 6.25147V6.5H7.99984ZM11.9998 2.5L12.4241 2.07573C12.1898 1.84142 11.8099 1.84142 11.5756 2.07574L11.9998 2.5ZM13.9998 4.49996L14.4241 4.92422C14.5366 4.8117 14.5998 4.65909 14.5998 4.49996C14.5998 4.34083 14.5366 4.18822 14.4241 4.07569L13.9998 4.49996ZM5.33317 9.10003C5.66454 9.10003 5.93317 8.8314 5.93317 8.50003C5.93317 8.16866 5.66454 7.90003 5.33317 7.90003V9.10003ZM7.99984 13.2334H7.39984V14.4334H7.99984V13.2334ZM9.99984 7.90003L7.99984 7.90003L7.99984 9.10003L9.99984 9.10003L9.99984 7.90003ZM8.59984 8.50003V6.5H7.39984V8.50003H8.59984ZM8.4241 6.92426L12.4241 2.92426L11.5756 2.07574L7.57557 6.07574L8.4241 6.92426ZM13.5756 4.0757L9.57557 8.07577L10.4241 8.92429L14.4241 4.92422L13.5756 4.0757ZM5.33317 7.90003H3.99984V9.10003H5.33317V7.90003ZM3.99984 11.7667H10.6665V10.5667H3.99984V11.7667ZM10.6665 13.2334H7.99984V14.4334H10.6665V13.2334ZM11.3998 12.5C11.3998 12.905 11.0715 13.2334 10.6665 13.2334V14.4334C11.7343 14.4334 12.5998 13.5678 12.5998 12.5H11.3998ZM10.6665 11.7667C11.0715 11.7667 11.3998 12.095 11.3998 12.5H12.5998C12.5998 11.4323 11.7343 10.5667 10.6665 10.5667V11.7667ZM2.0665 9.83336C2.0665 10.9011 2.93209 11.7667 3.99984 11.7667V10.5667C3.59483 10.5667 3.2665 10.2384 3.2665 9.83336H2.0665ZM3.99984 7.90003C2.93209 7.90003 2.0665 8.76561 2.0665 9.83336H3.2665C3.2665 9.42835 3.59483 9.10003 3.99984 9.10003V7.90003ZM11.5756 2.92427L13.5756 4.92423L14.4241 4.07569L12.4241 2.07573L11.5756 2.92427Z" fill="#000000"/>
</svg>
