<svg width="15" height="14" viewBox="0 0 15 14" fill="none" xmlns="http://www.w3.org/2000/svg">
<path d="M7.58349 2.91667H2.91683C2.2725 2.91667 1.75016 3.439 1.75016 4.08333V9.91667C1.75016 10.561 2.2725 11.0833 2.91683 11.0833H11.0835C11.7278 11.0833 12.2502 10.561 12.2502 9.91667V7.58333M1.74902 5.25C3.21157 6.34883 5.02968 7 6.99987 7C7.80802 7 8.59056 6.89045 9.33349 6.68535M13.4168 3.5C13.4168 4.4665 12.6334 5.25 11.6668 5.25C10.7003 5.25 9.91683 4.4665 9.91683 3.5C9.91683 2.5335 10.7003 1.75 11.6668 1.75C12.6334 1.75 13.4168 2.5335 13.4168 3.5Z" stroke="#57534F" stroke-width="1.2" stroke-linecap="round" stroke-linejoin="round"/>
</svg>
