<svg width="20" height="20" viewBox="0 0 20 20" fill="none" xmlns="http://www.w3.org/2000/svg">
<circle cx="10" cy="10" r="10" fill="#19CBCB"/>
<circle cx="10" cy="10" r="9.5" stroke="black" stroke-opacity="0.2"/>
<path fill-rule="evenodd" clip-rule="evenodd" d="M15.4314 5.78847C15.4948 5.83264 15.4869 5.9288 15.4171 5.96195L7.89097 9.537C7.8592 9.55209 7.82186 9.5495 7.79248 9.53017L4.29984 7.23253C4.23412 7.18929 4.24119 7.09075 4.31241 7.05734L11.9935 3.45411C12.0261 3.43884 12.0643 3.44209 12.0938 3.46265L15.4314 5.78847ZM4.00001 7.76989C3.99922 7.69223 4.08295 7.64298 4.15044 7.68141L11.6735 11.965C11.7077 11.9845 11.7274 12.0222 11.7239 12.0615L11.3759 15.9469C11.3693 16.0199 11.2894 16.0616 11.2257 16.0253L4.09224 11.9483C4.0612 11.9306 4.0419 11.8977 4.04154 11.862L4.00001 7.76989ZM11.9177 16.1005C11.9177 16.177 11.9995 16.2255 12.0666 16.1888L15.5035 14.309C15.5357 14.2913 15.5558 14.2575 15.5558 14.2207V6.5247C15.5558 6.45295 15.4829 6.40425 15.4166 6.43175L11.9797 7.85784C11.9421 7.87343 11.9176 7.91011 11.9176 7.95079L11.9177 16.1005Z" fill="white"/>
</svg>
