<svg width="14" height="14" viewBox="0 0 14 14" fill="none" xmlns="http://www.w3.org/2000/svg">
<path d="M2.40539 3.49785C2.93101 7.72157 6.27873 11.0693 10.5025 11.5949C11.1419 11.6745 11.6668 11.1445 11.6668 10.5002V9.73489C11.6668 9.21963 11.3289 8.76545 10.8354 8.6174L9.6672 8.26693C9.46163 8.20527 9.23886 8.26145 9.08713 8.41317L8.93529 8.56501C8.58325 8.91705 8.04139 9.0143 7.62046 8.74824C6.66595 8.1449 5.85541 7.33435 5.25205 6.37985C4.986 5.95891 5.08323 5.41707 5.43532 5.06498L5.5871 4.9132C5.73885 4.76146 5.79502 4.53865 5.73336 4.3331L5.3829 3.16492C5.23486 2.67144 4.78065 2.3335 4.26544 2.3335H3.50014C2.85581 2.3335 2.32583 2.85844 2.40539 3.49785Z" stroke="#57534F" stroke-width="1.2" stroke-linejoin="round"/>
</svg>
