<svg width="20" height="20" viewBox="0 0 20 20" fill="none" xmlns="http://www.w3.org/2000/svg">
<circle cx="10" cy="10" r="9.5" fill="#E7E5E4" stroke="#D5D3D1"/>
<path d="M10.0002 8.25001C9.51693 8.25001 9.12516 8.64176 9.12516 9.12501C9.12516 9.60824 9.51693 10 10.0002 10C10.4834 10 10.8752 9.60824 10.8752 9.12501C10.8752 8.64176 10.4834 8.25001 10.0002 8.25001ZM10.0002 8.25001V11.75M14.6668 9.94885V7.18681C14.6668 6.68865 14.3505 6.24545 13.8794 6.08351L10.3794 4.88038C10.1336 4.79589 9.8667 4.79589 9.62088 4.88038L6.1209 6.08351C5.6498 6.24545 5.3335 6.68865 5.3335 7.18681V9.94885C5.3335 12.8495 7.66683 14.0833 10.0002 15.3421C12.3335 14.0833 14.6668 12.8495 14.6668 9.94885Z" stroke="#78716C" stroke-width="1.16667" stroke-linecap="round" stroke-linejoin="round"/>
</svg>
