<svg width="14" height="14" viewBox="0 0 15 14" fill="none" xmlns="http://www.w3.org/2000/svg">
<path d="M7.50016 5.25008C7.01691 5.25008 6.62516 5.64183 6.62516 6.12508C6.62516 6.60833 7.01691 7.00008 7.50016 7.00008C7.98341 7.00008 8.37516 6.60833 8.37516 6.12508C8.37516 5.64183 7.98341 5.25008 7.50016 5.25008ZM7.50016 5.25008V8.75008M12.1668 6.94894V4.18688C12.1668 3.68872 11.8505 3.24552 11.3794 3.08357L8.06905 1.94563C7.70038 1.8189 7.29995 1.8189 6.93127 1.94563L3.6209 3.08357C3.1498 3.24552 2.8335 3.68872 2.8335 4.18688V6.94894C2.8335 9.84955 5.16683 11.0834 7.50016 12.3422C9.8335 11.0834 12.1668 9.84955 12.1668 6.94894Z" stroke="#A8A29D" stroke-width="1.2" stroke-linecap="round" stroke-linejoin="round"/>
</svg>
